<?xml version="1.0" standalone="no"?>
<!DOCTYPE svg PUBLIC "-//W3C//DTD SVG 20010904//EN"
 "http://www.w3.org/TR/2001/REC-SVG-20010904/DTD/svg10.dtd">
<svg version="1.0" xmlns="http://www.w3.org/2000/svg"
 width="1280.000000pt" height="1280.000000pt" viewBox="0 0 1280.000000 1280.000000"
 preserveAspectRatio="xMidYMid meet">
<metadata>
Created by potrace 1.14, written by Peter Selinger 2001-2017
</metadata>
<g transform="translate(0.000000,1280.000000) scale(0.100000,-0.100000)"
fill="#000000" stroke="none">
<path d="M3120 10073 c-41 -20 -59 -37 -85 -78 -39 -63 -15 -177 48 -226 68
-53 83 -75 86 -126 5 -106 52 -182 135 -222 81 -38 79 -64 -10 -160 -40 -43
-76 -71 -120 -92 -35 -16 -67 -29 -72 -29 -5 0 -30 -18 -54 -40 -33 -29 -49
-51 -56 -83 -9 -33 -26 -57 -69 -98 -92 -86 -98 -99 -96 -204 1 -49 0 -100 -3
-113 -7 -35 -48 -47 -194 -57 -113 -7 -221 -16 -243 -21 -10 -2 -50 -24 -90
-49 -39 -25 -77 -45 -84 -45 -8 0 -35 -11 -61 -24 -40 -20 -119 -42 -219 -62
-11 -2 -71 -37 -131 -78 -73 -49 -125 -76 -152 -81 -38 -6 -154 -62 -403 -194
-90 -47 -103 -51 -162 -50 -75 2 -98 -11 -210 -113 -79 -73 -103 -110 -106
-168 -2 -41 -7 -50 -70 -110 -80 -76 -92 -108 -54 -146 28 -27 57 -29 155 -11
63 12 68 12 134 -15 112 -46 158 -38 293 48 l52 33 73 -44 c92 -58 124 -63
194 -36 83 32 131 28 194 -14 34 -23 68 -37 97 -40 24 -2 76 -19 116 -36 112
-50 136 -49 262 5 59 25 113 46 120 46 16 0 72 25 110 50 115 74 133 74 253 5
86 -50 102 -52 177 -21 75 32 96 25 206 -66 26 -22 68 -47 93 -57 26 -10 47
-21 47 -24 -1 -4 -1 -13 -1 -20 0 -7 -18 -32 -40 -55 -37 -38 -40 -46 -40 -95
0 -69 -17 -87 -63 -68 -66 26 -107 17 -191 -43 -52 -38 -67 -58 -140 -188 -30
-54 -51 -60 -85 -24 -13 13 -31 26 -41 29 -20 5 -59 -25 -61 -46 0 -7 -2 -21
-4 -31 -2 -11 21 -74 52 -140 52 -113 56 -127 59 -209 5 -129 3 -132 -92 -132
l-79 0 -35 -69 c-33 -66 -39 -72 -103 -104 l-68 -33 2 -187 c2 -274 16 -342
70 -342 36 0 43 -46 12 -81 -19 -23 -19 -109 1 -147 10 -19 26 -33 45 -37 29
-6 146 1 160 10 25 15 100 14 136 -1 27 -11 72 -18 135 -19 52 -1 100 -3 106
-4 6 0 21 -20 34 -44 22 -42 22 -43 5 -77 -16 -31 -57 -88 -157 -217 -43 -55
-38 -93 28 -220 68 -132 89 -153 152 -153 70 0 139 56 161 131 6 21 27 57 47
80 20 24 47 64 60 91 13 26 28 48 32 48 14 0 54 -70 57 -100 6 -76 68 -108
131 -69 55 34 115 29 204 -17 56 -28 79 -35 106 -31 36 6 155 80 188 116 19
21 19 20 73 -29 34 -31 70 -54 96 -61 137 -36 205 -87 227 -169 15 -57 24 -69
88 -119 29 -23 74 -69 99 -101 69 -89 103 -89 118 0 4 21 13 46 20 57 13 17
14 16 26 -12 6 -16 14 -50 16 -75 3 -25 10 -61 17 -80 10 -31 16 -35 48 -38
20 -2 49 3 65 11 24 13 33 13 76 0 67 -20 123 -50 146 -79 14 -18 17 -32 11
-66 -13 -86 16 -127 132 -191 104 -58 167 -105 293 -221 44 -41 154 -104 210
-120 12 -3 51 -8 88 -11 118 -9 130 -20 151 -126 8 -41 22 -94 30 -118 9 -24
16 -49 16 -57 0 -7 -27 -31 -59 -54 -33 -23 -65 -55 -71 -71 -14 -32 -8 -98
15 -176 15 -49 18 -53 70 -72 30 -11 67 -23 82 -27 42 -10 85 -36 112 -66 29
-34 70 -37 126 -7 40 20 61 20 151 3 100 -20 117 1 108 129 -5 78 -4 85 26
142 28 54 32 71 36 175 7 146 20 214 48 247 21 24 30 26 106 29 82 3 85 4 154
52 98 67 111 72 229 81 10 0 44 27 77 58 33 31 115 97 183 146 174 127 170
122 182 209 3 24 7 50 8 58 11 71 86 135 146 126 20 -3 49 -19 70 -39 82 -79
103 -67 121 68 13 98 38 203 51 211 19 11 35 -51 38 -153 1 -20 6 -23 44 -23
42 0 43 1 80 65 21 36 41 65 45 65 5 0 27 16 50 36 31 26 45 48 53 80 17 67
68 101 164 111 52 5 91 26 109 58 70 124 137 198 165 180 17 -10 13 -50 -9
-78 -11 -14 -20 -34 -20 -45 0 -18 29 -52 45 -52 7 0 88 -65 140 -113 47 -43
72 -50 153 -37 1 0 2 11 2 24 0 14 -11 38 -25 54 -28 33 -31 48 -12 55 25 9
153 -4 198 -20 72 -25 130 1 169 78 26 49 62 74 88 60 10 -5 26 -29 36 -53 10
-24 24 -57 31 -74 18 -42 71 -101 108 -121 49 -25 111 -13 197 38 l75 45 0
111 c0 139 -11 160 -101 184 -105 28 -106 29 -79 122 8 29 16 86 18 127 l3 75
175 -2 c186 -3 305 -9 320 -18 13 -9 58 40 76 83 23 52 27 96 10 129 -20 39
-15 58 32 108 23 25 41 51 41 60 0 8 0 17 1 20 15 68 25 100 50 151 63 130 41
206 -85 301 -35 27 -82 71 -104 99 -35 44 -109 94 -140 94 -5 0 -19 11 -31 24
-20 21 -24 37 -27 113 -5 135 23 207 98 256 15 9 35 28 44 42 14 21 14 30 4
55 -18 45 -87 53 -130 16 -36 -31 -99 -25 -118 11 -6 10 -13 43 -17 73 -8 70
-42 146 -84 188 -36 36 -36 36 -176 36 l-100 1 -1 70 c-1 82 5 98 44 114 16 7
34 22 40 34 5 12 25 55 43 95 18 39 36 72 41 72 5 0 28 -8 51 -19 34 -15 77
-20 222 -24 99 -4 198 -9 220 -12 22 -3 81 -10 130 -16 50 -6 121 -19 159 -30
85 -23 278 -21 336 4 22 10 84 17 170 21 110 5 144 10 180 27 40 20 55 21 153
15 60 -3 112 -8 116 -10 3 -2 22 -7 41 -10 19 -3 76 -14 126 -25 84 -19 126
-25 227 -35 20 -2 61 1 90 6 53 10 157 54 169 71 16 25 -12 77 -91 172 -43 52
-45 65 -26 166 8 42 -326 226 -421 233 -42 2 -64 12 -125 54 l-74 51 -99 5
c-100 5 -100 5 -168 53 -79 56 -172 112 -278 170 -41 22 -91 50 -110 61 -19
11 -80 37 -135 57 -103 39 -173 80 -199 117 -30 43 -62 55 -131 51 -36 -3 -98
2 -138 10 -39 8 -92 15 -117 16 -75 3 -80 7 -80 59 1 26 7 58 15 72 8 14 14
34 15 45 0 24 -63 96 -100 115 -33 18 -54 46 -96 130 -40 80 -69 105 -174 154
-59 27 -86 47 -127 94 -60 69 -61 83 -8 145 43 50 94 150 101 198 8 52 47 111
129 196 41 43 75 85 76 93 5 68 -18 167 -41 180 -41 22 -169 12 -235 -19 -187
-86 -174 -82 -285 -86 -58 -2 -130 -11 -160 -20 -30 -9 -62 -17 -70 -20 -63
-15 -281 -85 -306 -98 -60 -31 -83 -87 -54 -132 10 -16 16 -41 15 -63 -1 -20
-3 -45 -4 -54 0 -10 -34 -42 -73 -72 -117 -86 -137 -115 -162 -236 -40 -190
-61 -220 -251 -362 -120 -90 -123 -93 -130 -146 -6 -51 -40 -123 -141 -297
-16 -27 -35 -62 -42 -76 -20 -39 -70 -91 -132 -137 l-55 -41 -80 4 c-44 2
-133 4 -197 5 -65 1 -118 6 -118 10 0 4 -26 48 -58 96 -60 91 -160 207 -194
225 -27 15 -75 -6 -92 -40 -15 -27 -13 -35 25 -128 12 -29 11 -37 -9 -78 -30
-62 -29 -99 4 -122 91 -64 104 -91 61 -131 -28 -27 -77 -42 -133 -42 -51 0
-70 20 -109 114 -33 79 -83 136 -121 136 -13 0 -41 -7 -61 -15 -69 -29 -103
-64 -138 -140 -34 -75 -41 -83 -75 -90 -25 -5 -46 25 -56 79 -9 53 -105 152
-157 161 -61 12 -99 -8 -153 -82 -77 -106 -88 -115 -136 -118 -126 -7 -162 70
-68 147 41 34 42 74 6 146 -29 57 -34 113 -11 132 29 24 14 89 -25 110 -58 31
-149 -67 -246 -264 -21 -43 -49 -86 -61 -96 -29 -23 -84 -19 -145 9 -60 27
-70 26 -134 -5 l-52 -26 -44 20 c-53 24 -136 106 -165 164 -11 24 -36 81 -54
128 -19 47 -62 142 -96 212 -35 70 -63 131 -63 136 0 5 -16 26 -36 46 -40 41
-96 69 -157 79 -85 13 -114 61 -118 187 -3 124 -61 241 -184 375 -68 74 -74
94 -46 152 11 24 21 49 21 57 0 28 -39 47 -150 71 -8 2 -31 10 -51 19 -20 8
-65 18 -100 21 -35 3 -86 12 -114 20 -68 19 -101 24 -184 29 -61 3 -82 10
-164 55 -109 58 -191 105 -229 132 -32 23 -62 24 -108 2z m2015 -2963 c57 -58
79 -67 180 -73 109 -6 127 -21 118 -92 -4 -36 0 -53 20 -87 36 -60 150 -177
226 -232 98 -71 140 -126 120 -157 -4 -7 -45 -32 -91 -54 -80 -39 -85 -43
-134 -120 -28 -44 -70 -99 -93 -123 -37 -37 -47 -43 -79 -40 -31 3 -40 9 -59
43 -22 38 -36 92 -48 182 -11 81 -96 267 -153 337 -13 16 -49 79 -79 140 -46
91 -57 121 -59 169 -3 64 17 135 43 154 20 15 37 7 88 -47z m2633 -12 c24 -89
-30 -280 -156 -558 -16 -36 -50 -126 -75 -200 -53 -157 -89 -241 -109 -258
-22 -18 -70 -19 -80 -2 -65 110 -120 208 -147 263 -39 82 -88 120 -148 117
-21 -2 -48 -2 -60 -1 -28 1 -63 38 -63 66 0 33 61 84 118 99 58 16 118 55 180
117 55 55 72 88 78 147 3 26 6 62 8 80 4 33 11 46 24 48 263 24 286 29 336 78
49 47 82 48 94 4z m-3020 -1443 c88 -13 207 -44 267 -70 17 -7 80 -32 140 -55
61 -23 120 -48 133 -57 l24 -14 -3 -291 -3 -290 -33 -27 c-41 -34 -126 -65
-157 -57 -17 4 -30 23 -50 71 -16 35 -46 91 -69 122 -38 55 -107 183 -107 199
0 4 -11 21 -24 38 -13 17 -49 76 -81 131 -31 55 -79 127 -105 160 -58 75 -70
97 -70 129 0 30 14 35 63 24 20 -4 54 -11 75 -13z m3393 5 c47 -26 65 -103 32
-132 -10 -8 -33 -20 -50 -27 -35 -14 -83 -54 -83 -70 0 -5 -4 -11 -8 -13 -4
-1 -37 -52 -72 -111 -36 -60 -86 -132 -112 -161 -26 -30 -65 -91 -87 -137 -47
-101 -94 -151 -179 -191 -48 -23 -72 -42 -99 -79 -40 -56 -59 -69 -101 -69
-60 0 -74 45 -53 165 10 60 17 124 26 245 5 67 12 121 20 155 18 79 57 211 64
218 5 5 42 13 82 17 85 10 99 15 234 79 256 124 325 143 386 111z"/>
<path d="M2333 6548 c-61 -16 -89 -82 -62 -142 19 -41 57 -48 99 -18 116 82
90 195 -37 160z"/>
<path d="M10375 6492 c-42 -5 -56 -19 -49 -51 27 -113 156 -191 214 -129 33
36 34 61 6 107 -40 63 -87 83 -171 73z"/>
<path d="M3720 4540 c-26 -26 -25 -53 3 -84 27 -31 59 -27 76 11 12 26 9 36
-22 71 -25 27 -32 27 -57 2z"/>
<path d="M4264 4358 c-52 -24 -44 -127 12 -148 38 -15 59 -5 79 39 16 37 16
40 -1 70 -21 36 -60 52 -90 39z"/>
<path d="M8443 4330 c-39 -16 -47 -49 -28 -111 4 -11 20 -26 37 -35 28 -15 32
-15 49 3 32 33 29 82 -8 122 -23 24 -32 28 -50 21z"/>
<path d="M2939 4271 c-20 -16 -24 -28 -24 -69 1 -83 48 -111 85 -49 26 42 26
91 0 117 -25 25 -32 25 -61 1z"/>
<path d="M9757 4172 c-43 -47 -1 -164 52 -147 42 13 76 97 53 131 -10 16 -48
34 -70 34 -10 0 -26 -8 -35 -18z"/>
<path d="M2810 4064 c-17 -19 -2 -82 23 -98 25 -16 51 4 55 43 6 56 -47 93
-78 55z"/>
<path d="M9885 3954 c-47 -51 -25 -94 47 -94 59 0 77 44 37 94 -26 33 -53 33
-84 0z"/>
</g>
</svg>
